<?xml version="1.0" standalone="no"?>
<!DOCTYPE svg PUBLIC "-//W3C//DTD SVG 20010904//EN"
 "http://www.w3.org/TR/2001/REC-SVG-20010904/DTD/svg10.dtd">
<svg version="1.0" xmlns="http://www.w3.org/2000/svg"
 width="612.000000pt" height="612.000000pt" viewBox="0 0 612.000000 612.000000"
 preserveAspectRatio="xMidYMid meet">
<metadata>
Created by potrace 1.14, written by Peter Selinger 2001-2017
</metadata>
<g transform="translate(0.000000,612.000000) scale(0.100000,-0.100000)"
fill="#000000" stroke="none">
<path d="M0 3060 l0 -3060 3060 0 3060 0 0 3060 0 3060 -160 0 -160 0 5 -23
c5 -18 1 -26 -19 -35 -14 -6 -26 -16 -26 -22 0 -5 -11 -10 -25 -10 -29 0 -43
36 -25 69 l11 21 -2649 0 -2649 0 -13 -115 c-7 -63 -17 -115 -22 -115 -5 0 -2
-7 6 -16 18 -17 21 -44 6 -44 -5 0 -10 -8 -10 -19 0 -10 -7 -34 -15 -54 -10
-25 -12 -43 -5 -67 11 -39 10 -158 -2 -182 -4 -9 -4 -19 0 -22 13 -8 -2 -81
-16 -78 -7 1 -11 -1 -10 -5 0 -5 -2 -16 -6 -25 -4 -9 -2 -26 4 -38 14 -27 3
-100 -15 -100 -18 0 -45 -45 -45 -75 0 -35 30 -81 41 -63 6 8 9 -1 9 -24 0
-27 -4 -38 -15 -38 -8 0 -15 -4 -15 -10 0 -5 -9 -10 -21 -10 -11 0 -18 -4 -15
-9 3 -5 -3 -11 -14 -14 -11 -3 -18 -2 -15 3 3 4 -2 11 -12 14 -14 6 -15 18 -9
93 3 48 11 92 17 99 7 8 7 14 -1 19 -15 9 -13 65 3 65 9 0 14 12 15 30 0 17
-3 28 -6 26 -4 -2 -8 17 -9 42 -1 26 -3 57 -3 70 -1 13 5 31 15 42 9 10 12 21
7 24 -19 12 -19 46 0 82 19 35 19 39 3 50 -15 12 -16 21 -5 100 6 48 13 142
15 208 2 67 6 129 10 139 7 16 -4 17 -134 17 l-141 0 0 -3060z m5874 2844 c10
-26 7 -33 -16 -45 -22 -12 -49 -13 -93 -5 -11 3 -23 5 -27 5 -5 1 -8 10 -8 20
0 16 11 21 63 29 34 5 65 10 68 11 4 0 10 -6 13 -15z m-3824 -304 c-7 -37 -5
-41 23 -59 33 -21 47 -19 47 5 0 25 32 15 66 -23 45 -49 52 -72 25 -92 -19
-14 -20 -20 -9 -54 7 -24 16 -36 25 -33 16 7 43 -32 43 -61 0 -13 5 -23 10
-23 6 0 10 4 10 9 0 5 8 8 18 7 11 0 16 5 14 16 -1 9 2 19 7 23 6 3 8 12 5 19
-3 8 -1 17 5 20 5 3 12 -7 16 -24 6 -27 25 -43 25 -21 0 13 35 20 53 10 11 -7
19 -4 27 8 8 13 13 14 16 6 8 -20 24 -15 24 6 0 27 31 36 47 15 7 -10 13 -22
13 -27 0 -4 4 -6 9 -3 5 4 11 0 14 -6 8 -25 19 1 20 49 0 26 3 40 5 31 4 -21
28 -24 35 -5 2 6 8 9 12 5 4 -4 3 -14 -4 -21 -8 -11 -8 -21 3 -43 13 -23 16
-25 22 -11 3 9 12 17 20 17 8 0 14 10 14 23 0 12 9 40 20 62 13 25 18 31 15
15 -18 -80 -18 -90 -1 -90 13 0 16 -5 11 -21 -6 -18 -4 -20 14 -14 16 5 23 1
29 -14 7 -18 9 -17 45 15 20 19 37 43 37 54 0 10 5 22 10 25 13 8 2 -43 -12
-62 -15 -18 -28 -73 -17 -73 5 0 9 -10 10 -22 0 -13 3 -17 6 -10 7 17 33 15
33 -2 0 -20 29 -48 41 -40 6 3 18 -1 27 -9 19 -17 122 -22 122 -7 0 6 3 9 8 8
14 -4 57 15 69 31 7 9 13 12 13 8 0 -4 10 -3 21 4 18 9 24 8 31 -5 8 -14 11
-14 30 4 26 24 48 26 48 4 0 -11 5 -14 18 -9 20 8 160 10 182 3 8 -3 40 -11
70 -17 30 -7 73 -20 95 -30 38 -18 102 -34 193 -49 23 -4 44 -11 45 -17 1 -5
19 -25 40 -43 20 -19 53 -56 73 -84 20 -27 54 -58 76 -69 30 -15 39 -25 35
-39 -3 -12 8 -34 31 -61 28 -33 33 -45 25 -58 -8 -13 -5 -23 12 -43 17 -20 22
-39 23 -91 1 -75 4 -90 16 -98 4 -4 3 -16 -3 -27 -8 -15 -7 -23 4 -32 8 -7 15
-22 15 -33 0 -11 5 -37 12 -59 9 -32 9 -41 -2 -48 -9 -6 -11 -22 -7 -59 3 -28
3 -51 -2 -51 -7 0 -4 -124 4 -148 3 -7 9 -10 15 -7 5 3 10 -1 10 -9 0 -9 -5
-16 -11 -16 -6 0 -9 -14 -7 -32 2 -18 -2 -33 -9 -35 -8 -3 -13 5 -13 21 0 14
-4 26 -9 26 -14 0 -20 -53 -8 -75 6 -11 12 -38 15 -60 2 -22 8 -41 13 -43 5
-2 9 -10 9 -18 0 -8 5 -14 10 -14 6 0 10 -7 10 -15 0 -14 29 -20 66 -16 7 1
14 -5 17 -13 5 -11 13 -12 44 -4 85 23 120 22 147 -5 13 -14 29 -42 35 -63 17
-67 24 -264 11 -334 -18 -103 -108 -370 -143 -425 -18 -27 -41 -67 -52 -88
-23 -44 -87 -87 -131 -87 -40 0 -46 -6 -76 -72 -27 -57 -32 -97 -13 -110 6 -5
3 -8 -7 -8 -10 0 -27 -13 -39 -30 -12 -16 -25 -27 -29 -25 -11 7 -36 -57 -39
-99 -1 -6 -6 -5 -12 1 -5 5 -10 29 -11 52 0 32 -3 39 -13 31 -8 -7 -21 -7 -38
-1 -18 7 -27 7 -31 -2 -2 -7 -5 -2 -5 10 -1 12 -7 34 -13 49 -10 22 -10 28 0
32 19 6 14 27 -12 55 -26 28 -29 74 -8 114 16 28 15 30 -6 35 -38 10 -50 -13
-53 -102 -2 -55 2 -93 10 -108 12 -22 11 -23 -8 -17 -24 7 -28 -7 -6 -25 12
-10 12 -14 0 -26 -7 -8 -18 -14 -23 -14 -10 0 -22 -23 -22 -41 0 -4 7 -6 16
-2 12 4 15 1 12 -13 -2 -11 -11 -18 -21 -16 -9 2 -17 -2 -17 -8 0 -5 5 -10 10
-10 21 0 9 -48 -20 -80 -16 -18 -30 -28 -30 -21 0 7 -5 9 -11 6 -6 -4 -8 -22
-4 -46 4 -25 3 -39 -4 -39 -6 0 -11 8 -11 17 0 13 -3 14 -11 6 -9 -9 -8 -20 4
-45 16 -33 10 -53 -15 -53 -5 0 -19 -24 -30 -52 -11 -29 -24 -53 -29 -53 -5 0
-9 -11 -9 -25 0 -18 -4 -23 -16 -18 -13 5 -15 2 -9 -16 6 -20 4 -22 -17 -19
-18 2 -22 9 -20 28 1 19 0 21 -7 10 -8 -12 -12 -10 -20 11 -11 29 -41 35 -41
7 0 -10 5 -17 11 -15 6 1 14 -4 16 -10 3 -7 0 -13 -6 -13 -6 0 -11 -11 -11
-24 0 -34 -17 -41 -31 -14 -7 13 -11 24 -10 26 7 7 -12 62 -25 73 -12 10 -17
8 -29 -7 -8 -10 -18 -30 -21 -44 -17 -73 -64 -128 -64 -76 0 13 7 29 15 36 14
12 12 30 -4 30 -21 0 -61 -51 -61 -78 0 -28 -21 -58 -32 -47 -3 3 -13 -4 -23
-15 -10 -11 -23 -20 -29 -20 -6 0 -23 -7 -38 -14 -19 -10 -37 -12 -57 -6 -22
6 -33 4 -42 -6 -6 -8 -20 -14 -31 -14 -15 0 -19 6 -16 27 4 33 28 44 28 13 0
-19 2 -21 16 -9 12 9 15 24 11 51 -3 21 -1 38 4 38 5 0 9 7 9 15 0 21 -27 19
-39 -3 -10 -16 -10 -16 -11 1 0 9 -4 17 -10 17 -5 0 -10 -4 -10 -9 0 -5 -9 -7
-20 -4 -15 4 -20 0 -20 -16 0 -14 -5 -19 -15 -15 -8 4 -15 1 -15 -4 0 -6 -16
-16 -35 -23 -19 -7 -35 -18 -36 -24 0 -5 -5 1 -10 14 l-10 25 -16 -25 c-9 -13
-18 -26 -19 -28 -2 -2 -11 4 -20 14 -16 16 -18 16 -31 -9 -15 -28 -47 -26 -38
3 3 12 -2 16 -20 17 -17 1 -25 -4 -26 -15 -1 -9 -2 -23 -3 -31 -1 -19 -36 -26
-36 -7 0 13 -16 22 -57 32 -7 2 -13 -3 -13 -11 0 -24 -19 -15 -36 17 -11 22
-18 28 -24 19 -4 -7 -5 -20 -3 -30 3 -10 0 -21 -6 -24 -7 -4 -11 1 -11 13 0
12 -4 21 -10 21 -5 0 -10 -4 -10 -10 0 -18 -22 -10 -27 10 -6 23 -14 25 -32 8
-11 -11 -12 -8 -7 15 7 30 -8 67 -27 67 -8 0 -7 -4 3 -11 12 -9 11 -9 -5 -4
-11 4 -28 10 -38 12 -11 3 -16 12 -13 22 7 23 -18 53 -38 45 -11 -4 -16 -1
-16 12 0 10 -11 28 -24 39 -25 22 -50 85 -27 71 6 -4 11 -2 11 3 0 15 -27 14
-33 -1 -3 -8 -6 -5 -6 5 -1 10 -18 35 -39 55 -21 20 -41 45 -45 54 -3 10 -11
18 -17 18 -6 0 -9 -3 -7 -7 3 -5 -1 -14 -9 -21 -12 -11 -14 -9 -14 11 0 14 -7
30 -15 37 -8 6 -26 33 -41 58 -15 26 -32 51 -36 57 -44 51 -108 152 -108 170
0 12 -7 39 -15 59 -9 20 -13 41 -10 47 11 17 -4 44 -35 62 -39 24 -61 68 -70
142 -4 33 -20 92 -35 130 -15 39 -35 109 -45 156 -11 47 -28 110 -40 140 -18
48 -21 75 -20 232 0 228 9 250 96 249 46 -1 51 6 33 39 -9 18 -8 19 8 10 23
-12 39 -3 51 29 8 21 5 26 -16 37 -17 9 -29 10 -37 3 -18 -15 -24 -2 -14 32 4
17 7 111 4 210 -3 155 -1 189 16 250 31 111 34 241 6 235 -5 -1 -14 15 -19 36
-4 21 -15 48 -23 60 -8 12 -15 24 -15 27 0 4 18 31 40 61 23 29 46 73 52 96 6
26 16 43 25 43 8 0 11 -4 8 -10 -3 -5 -1 -10 4 -10 6 0 11 -6 11 -14 0 -19 25
-27 39 -13 16 16 14 37 -4 37 -8 0 -17 11 -21 25 -3 14 -10 22 -15 19 -20 -12
-8 14 12 28 20 13 20 17 9 39 -16 28 -14 80 3 127 9 25 9 37 -1 52 -7 11 -12
22 -12 25 0 11 29 4 44 -10 11 -11 17 -12 22 -4 4 7 0 18 -10 24 -9 7 -14 19
-10 29 3 9 1 16 -5 16 -18 0 -13 25 9 45 10 9 26 15 35 12 10 -5 15 0 15 14 0
16 5 20 20 16 17 -4 18 -2 10 13 -13 25 -27 33 -35 20 -10 -16 -25 -12 -25 8
0 28 20 42 51 35 17 -3 35 0 44 7 21 18 19 32 -4 25 -21 -6 -21 -5 -12 143 1
6 9 12 20 12 16 0 17 -5 11 -40z m59 17 c10 3 22 0 25 -6 4 -6 18 -11 32 -11
15 0 23 -4 19 -11 -14 -22 -115 13 -115 40 1 14 2 14 10 -1 6 -9 18 -14 29
-11z m299 -9 c16 -16 15 -28 -3 -28 -8 0 -19 9 -25 20 -8 15 -8 20 3 20 7 0
18 -5 25 -12z m-101 -22 c-2 -6 2 -17 10 -24 27 -28 12 -32 -17 -5 -35 33 -39
54 -10 46 12 -3 19 -11 17 -17z m-82 -24 c-8 -8 -25 10 -19 20 4 6 9 5 15 -3
4 -7 6 -15 4 -17z m145 -22 c0 -11 -2 -20 -4 -20 -2 0 -6 9 -9 20 -3 11 -1 20
4 20 5 0 9 -9 9 -20z m120 0 c0 -11 -4 -20 -10 -20 -5 0 -10 9 -10 20 0 11 5
20 10 20 6 0 10 -9 10 -20z m-220 -48 c0 -7 -4 -10 -10 -7 -5 3 -10 16 -10 28
0 18 2 19 10 7 5 -8 10 -21 10 -28z m480 8 c8 -5 11 -12 8 -16 -10 -9 -38 3
-38 16 0 12 10 13 30 0z m-385 -9 c3 -5 1 -13 -5 -16 -6 -4 -8 -15 -5 -26 4
-10 2 -19 -3 -19 -6 0 -8 -9 -5 -19 3 -13 -2 -23 -17 -31 -11 -6 -20 -19 -19
-28 3 -36 -2 -47 -12 -23 -6 15 -6 28 1 36 8 9 6 15 -7 19 -11 4 -22 1 -29 -8
-9 -13 -11 -9 -12 19 -2 39 10 52 28 30 16 -19 34 -19 26 0 -3 9 0 15 10 15
11 0 13 7 8 26 -5 19 -4 25 5 20 6 -4 11 -2 11 3 0 13 17 14 25 2z m461 -47
c22 -49 24 -60 14 -85 -7 -16 -17 -29 -22 -29 -7 0 -7 4 0 13 12 14 -2 115
-18 131 -11 11 -14 26 -5 26 3 0 17 -25 31 -56z m-516 26 c0 -5 -4 -10 -10
-10 -5 0 -10 5 -10 10 0 6 5 10 10 10 6 0 10 -4 10 -10z m352 -42 c-9 -9 -12
-7 -12 12 0 19 3 21 12 12 9 -9 9 -15 0 -24z m2993 -32 c18 -27 11 -53 -16
-61 -25 -8 -45 8 -54 42 -11 45 43 60 70 19z m-3783 -104 c12 -5 15 -11 9 -21
-8 -12 -14 -12 -41 -1 -23 9 -28 15 -18 21 15 10 26 10 50 1z m-82 -21 c0 -12
-20 -25 -27 -18 -7 7 6 27 18 27 5 0 9 -4 9 -9z m70 -96 c0 -21 -30 -31 -40
-14 -11 17 -3 29 21 29 10 0 19 -7 19 -15z m-180 -186 c0 -18 -2 -19 -15 -9
-15 12 -12 30 6 30 5 0 9 -10 9 -21z m-1390 -50 c17 -31 4 -68 -26 -75 -18 -5
-23 -11 -19 -23 4 -10 3 -13 -4 -6 -15 16 -25 65 -12 65 6 0 11 8 11 18 0 18
18 42 32 42 4 0 12 -9 18 -21z m-25 -149 c26 -29 13 -107 -21 -122 -20 -9 -27
-9 -34 2 -8 14 -4 116 6 131 9 15 30 10 49 -11z m-5 -299 c0 -6 -4 -13 -10
-16 -5 -3 -10 1 -10 9 0 9 5 16 10 16 6 0 10 -4 10 -9z m-12 -29 c9 -6 12 -33
11 -89 -1 -45 1 -85 5 -91 3 -5 -4 -21 -15 -36 -15 -19 -30 -26 -56 -26 -35 0
-35 1 -28 33 3 17 9 65 12 106 4 60 9 78 27 92 24 21 27 22 44 11z m-68 -342
c0 -5 -2 -10 -4 -10 -3 0 -8 5 -11 10 -3 6 -1 10 4 10 6 0 11 -4 11 -10z m10
-61 c0 -5 -4 -9 -10 -9 -5 0 -10 7 -10 16 0 8 5 12 10 9 6 -3 10 -10 10 -16z
m4157 -129 c6 0 14 -7 17 -15 5 -14 1 -13 -24 1 -16 10 -32 25 -35 33 -5 12
-2 11 13 -2 10 -9 23 -17 29 -17z m-2582 -90 c3 -5 1 -10 -4 -10 -6 0 -11 5
-11 10 0 6 2 10 4 10 3 0 8 -4 11 -10z m-1560 -110 c8 -13 -14 -42 -25 -35 -4
3 -10 14 -13 25 -4 15 0 20 13 20 11 0 22 -5 25 -10z m3730 -1112 c2 -7 6 -38
10 -68 7 -61 -10 -61 -19 0 -3 19 -8 45 -12 58 -4 14 -2 22 5 22 6 0 13 -6 16
-12z m-25 -142 c0 -2 -7 -6 -15 -10 -8 -3 -15 -1 -15 4 0 6 7 10 15 10 8 0 15
-2 15 -4z m120 -65 c-6 -23 -9 -45 -6 -50 6 -9 -15 -61 -24 -61 -10 0 -1 130
11 151 19 35 32 8 19 -40z m-148 -53 c-6 -6 -7 0 -4 19 5 21 7 23 10 9 2 -10
0 -22 -6 -28z m248 17 c0 -8 -4 -15 -9 -15 -13 0 -22 16 -14 24 11 11 23 6 23
-9z m-320 -145 c-6 -11 -9 -24 -6 -29 3 -5 -1 -14 -9 -21 -13 -11 -15 -6 -11
41 3 30 5 55 6 57 0 2 7 -4 15 -12 13 -12 14 -20 5 -36z m192 -197 c1 -54 1
-143 -1 -199 -3 -81 1 -116 19 -180 15 -53 22 -105 22 -159 0 -80 -7 -101 -48
-160 -12 -17 -29 -48 -40 -70 -22 -49 -93 -155 -103 -155 -16 0 -52 -43 -47
-56 4 -10 -7 -20 -29 -31 -28 -13 -35 -23 -35 -44 0 -15 -5 -31 -11 -34 -5 -4
-21 -30 -34 -58 -17 -38 -20 -55 -13 -65 8 -9 6 -18 -7 -32 -16 -17 -17 -27
-8 -65 7 -29 7 -45 0 -45 -5 0 -7 -11 -5 -25 4 -21 -4 -30 -56 -65 -34 -22
-77 -56 -96 -76 -46 -48 -103 -80 -224 -127 -139 -53 -180 -64 -261 -72 -38
-4 -88 -13 -110 -20 -76 -24 -108 -26 -142 -8 -50 29 -123 95 -116 106 3 6 2
7 -4 4 -17 -10 -83 81 -157 217 -11 21 -41 62 -66 91 -120 140 -195 249 -218
316 -14 42 -15 62 -3 54 5 -3 12 -1 16 5 3 5 17 10 30 10 39 0 55 11 70 47 10
23 12 41 5 52 -11 22 -12 92 -2 351 8 214 17 258 50 245 9 -4 30 -13 46 -19
17 -6 41 -21 54 -33 13 -12 45 -32 71 -45 25 -12 70 -45 98 -74 37 -36 58 -51
71 -47 14 3 21 -2 25 -17 3 -12 11 -20 19 -19 15 3 60 -14 100 -36 14 -8 39
-15 55 -15 21 0 24 -3 13 -10 -26 -16 -5 -20 25 -4 16 8 37 13 47 11 10 -3 18
-2 18 3 0 4 17 10 38 14 70 11 113 27 106 38 -5 8 7 9 40 6 32 -4 49 -2 54 7
4 7 32 33 62 56 30 24 61 49 68 56 7 7 20 13 29 13 8 0 32 13 52 28 39 31 101
62 122 62 7 0 25 11 39 25 14 13 41 39 60 57 19 18 44 46 55 61 11 16 50 52
86 82 36 29 85 74 110 99 24 25 47 46 52 46 4 0 8 -44 9 -97z m-1785 -5 c-3
-8 -6 -5 -6 6 -1 11 2 17 5 13 3 -3 4 -12 1 -19z m1268 -98 c-4 -12 -9 -19
-12 -17 -3 3 -2 15 2 27 4 12 9 19 12 17 3 -3 2 -15 -2 -27z"/>
<path d="M2145 5520 c-3 -5 -1 -10 4 -10 6 0 11 5 11 10 0 6 -2 10 -4 10 -3 0
-8 -4 -11 -10z"/>
<path d="M2110 5423 c0 -13 5 -23 10 -23 13 0 13 11 0 30 -8 12 -10 11 -10 -7z"/>
<path d="M2160 5411 c0 -6 4 -13 10 -16 6 -3 7 1 4 9 -7 18 -14 21 -14 7z"/>
<path d="M2086 5314 c-9 -24 -7 -31 9 -38 11 -4 15 2 15 24 0 32 -14 40 -24
14z"/>
<path d="M1935 5061 c-3 -5 -1 -12 4 -15 5 -3 11 1 15 9 6 16 -9 21 -19 6z"/>
<path d="M1907 4998 c-7 -25 -3 -33 12 -23 13 8 15 45 2 45 -5 0 -11 -10 -14
-22z"/>
<path d="M3510 4340 c-8 -5 -29 -10 -45 -10 -17 0 -63 -9 -104 -20 -40 -12
-81 -18 -91 -15 -13 4 -24 -5 -41 -32 -13 -21 -29 -44 -36 -51 -7 -7 -13 -27
-13 -43 0 -19 -5 -29 -15 -29 -8 0 -15 -4 -15 -9 0 -5 -16 -1 -35 7 -19 9 -35
22 -35 29 0 21 -27 15 -33 -8 -3 -12 -10 -18 -17 -14 -6 4 -17 -1 -24 -11 -13
-16 -15 -16 -49 5 -20 12 -37 27 -40 34 -3 9 -10 9 -30 -2 -14 -8 -24 -18 -20
-24 3 -5 -13 -8 -41 -6 -33 3 -46 0 -46 -9 0 -8 8 -10 25 -6 15 4 25 2 25 -5
0 -6 -7 -8 -15 -5 -8 4 -15 2 -15 -4 0 -5 -9 -12 -21 -15 -14 -4 -19 -2 -15 8
6 17 -15 85 -26 85 -5 0 -7 4 -4 9 3 4 -3 16 -14 26 -11 10 -20 23 -20 29 0 7
-9 20 -21 29 -20 18 -21 18 -34 1 -10 -14 -16 -16 -26 -7 -24 19 -84 31 -104
21 -9 -6 -47 -10 -84 -10 -39 0 -72 -5 -81 -12 -17 -15 -75 -31 -170 -47 -133
-22 -244 -94 -288 -185 -15 -32 -29 -39 -73 -36 -11 1 -18 -9 -21 -29 -4 -28
-3 -29 31 -27 l36 3 7 -85 c8 -104 36 -196 83 -275 37 -62 102 -135 119 -135
5 0 -11 20 -36 45 -58 57 -115 166 -134 256 -16 75 -24 249 -13 249 4 0 17 20
29 45 12 25 37 58 56 73 38 32 135 68 204 76 43 5 38 -2 -12 -18 -25 -8 -22
-24 4 -28 28 -4 36 -28 9 -28 -11 0 -31 4 -45 10 -31 11 -32 10 -8 -18 11 -12
36 -23 65 -27 26 -4 47 -11 47 -16 0 -5 -6 -9 -12 -9 -10 0 -10 -2 -2 -8 15
-9 -45 -102 -66 -102 -11 0 -12 -2 -2 -8 9 -6 6 -14 -13 -32 -45 -42 -66 -96
-63 -161 2 -65 5 -66 71 -32 19 9 44 12 69 9 35 -5 39 -4 28 9 -18 22 2 61 35
69 15 4 29 6 30 4 1 -2 6 -25 10 -52 6 -42 4 -48 -9 -43 -23 9 -20 -15 5 -37
18 -15 19 -20 8 -27 -10 -6 -10 -9 -1 -9 19 0 14 -55 -8 -75 -11 -10 -18 -21
-15 -25 4 -7 115 5 150 17 11 4 24 6 29 5 4 -2 22 6 40 16 17 10 43 22 56 25
24 6 42 20 115 84 17 15 33 26 37 25 4 -1 4 6 1 15 -4 10 -2 14 4 10 6 -4 13
0 17 8 3 9 0 15 -9 15 -18 0 -27 14 -19 34 7 19 30 21 37 4 3 -7 6 7 6 32 1
25 6 52 11 60 16 24 12 -51 -6 -133 -25 -112 -68 -193 -138 -263 -113 -113
-238 -153 -406 -129 -25 3 -21 1 15 -10 152 -45 314 16 433 161 23 28 42 55
42 59 0 4 8 15 19 24 10 9 28 48 40 86 13 39 29 85 37 103 17 39 19 64 3 42
-8 -12 -9 -9 -3 10 8 30 8 74 -1 116 -5 22 -2 34 9 43 9 8 16 18 16 23 0 6 -6
5 -15 -2 -24 -20 -44 1 -27 28 13 19 66 27 59 9 -8 -21 10 -35 39 -29 32 6 31
22 -2 22 -14 0 -23 4 -19 10 3 6 26 10 51 10 30 0 46 5 50 15 4 8 11 12 18 8
6 -4 31 -8 56 -9 28 -1 37 1 26 6 -19 6 -19 7 2 12 15 4 22 2 22 -8 0 -8 12
-17 28 -20 34 -7 76 -40 67 -54 -3 -6 -10 -8 -15 -5 -12 7 -24 -15 -14 -25 5
-5 7 -36 6 -69 -3 -55 -6 -60 -25 -58 -19 2 -22 -2 -19 -33 1 -19 6 -44 11
-55 40 -87 61 -140 61 -154 1 -9 9 -34 20 -56 11 -22 19 -48 20 -57 0 -10 4
-18 9 -18 5 0 8 16 5 35 -5 42 7 45 31 8 24 -38 83 -95 133 -128 43 -28 51
-46 12 -25 -12 6 -25 9 -28 5 -3 -3 4 -8 16 -12 31 -8 27 -23 -6 -23 -20 0
-35 -9 -52 -32 -15 -21 -19 -33 -12 -36 15 -5 16 -49 2 -54 -6 -2 -17 -21 -25
-43 -13 -38 -12 -40 8 -44 12 -1 26 4 31 12 8 12 13 11 33 -9 13 -13 28 -24
34 -24 6 0 8 -4 5 -9 -4 -5 -3 -16 0 -25 5 -12 10 -14 19 -6 10 8 14 -2 19
-41 4 -32 3 -56 -3 -62 -8 -8 -11 -7 -11 2 0 10 -9 12 -32 7 -29 -6 -30 -5
-14 7 18 13 18 15 1 40 -21 32 -35 35 -35 6 0 -11 -5 -29 -10 -40 -9 -15 -7
-19 5 -19 17 0 42 -46 32 -57 -4 -3 -16 2 -27 12 -12 11 -31 20 -42 22 -12 2
-29 9 -37 16 -9 7 -35 22 -58 32 -24 10 -43 24 -43 32 0 7 -5 13 -12 13 -6 0
0 13 15 28 15 15 27 33 27 40 0 19 -36 32 -92 32 -61 0 -118 -31 -140 -77 -17
-35 -66 -46 -121 -27 -50 18 -47 18 -47 -11 0 -21 -5 -25 -31 -25 -33 0 -99
-27 -99 -40 0 -4 -9 -10 -21 -13 -16 -4 -19 -11 -14 -26 4 -12 2 -21 -4 -21
-6 0 -11 4 -11 10 0 5 -16 0 -35 -11 -31 -18 -35 -19 -35 -5 0 10 11 28 25 42
14 14 22 30 19 36 -4 6 0 14 7 19 11 7 10 9 -3 9 -10 0 -18 5 -18 10 0 6 8 10
18 10 14 0 15 2 2 10 -11 7 -11 10 -2 10 7 0 10 5 7 10 -3 6 -1 10 4 10 18 0
12 29 -10 60 -20 26 -21 37 -15 111 6 72 5 81 -8 70 -8 -7 -20 -10 -26 -6 -5
3 -10 1 -10 -6 0 -6 -8 -9 -19 -6 -13 3 -21 -1 -24 -14 -4 -15 -10 -17 -28
-11 -30 12 -66 -29 -75 -86 -4 -23 -12 -47 -20 -53 -7 -6 -11 -16 -8 -23 3 -8
-2 -16 -10 -19 -9 -4 -16 -13 -16 -21 0 -10 -6 -13 -15 -10 -11 5 -15 -1 -15
-20 0 -15 -8 -31 -20 -38 -11 -7 -20 -18 -20 -24 0 -6 -9 -19 -20 -29 -11 -10
-20 -23 -20 -30 0 -7 -7 -26 -16 -43 -8 -18 -13 -36 -10 -41 4 -5 1 -11 -4
-13 -10 -3 -14 -132 -8 -205 3 -27 13 -29 27 -5 9 14 10 14 11 1 0 -8 -5 -20
-11 -26 -15 -15 8 -112 30 -130 21 -18 68 -16 101 4 29 17 70 79 70 107 0 19
7 20 48 5 26 -9 37 -7 74 14 33 19 61 26 121 29 69 4 77 3 77 -13 0 -10 9 -24
19 -31 15 -10 20 -29 24 -76 2 -34 1 -62 -2 -62 -3 0 -12 -14 -20 -31 -8 -18
-22 -34 -32 -36 -11 -3 -19 -10 -20 -17 0 -6 -5 -2 -10 9 -7 16 -8 14 -4 -9 4
-18 1 -34 -9 -45 -15 -16 -20 -46 -18 -90 2 -20 6 -22 28 -17 26 7 26 6 20
-29 -6 -31 -4 -36 19 -47 14 -6 25 -15 25 -19 0 -4 15 -5 34 -2 29 4 35 2 41
-17 5 -15 11 -19 23 -14 17 7 79 13 139 13 22 0 35 7 43 21 6 11 18 20 28 20
23 0 59 40 68 76 4 16 13 41 21 56 7 15 14 31 14 35 0 5 8 16 16 25 12 14 19
15 30 7 7 -7 16 -9 19 -6 12 11 -6 25 -41 31 -19 4 -35 13 -35 20 0 22 -70 47
-137 49 -20 0 -33 6 -33 14 0 7 -4 13 -10 13 -5 0 -10 -5 -10 -10 0 -7 -8 -6
-22 2 -22 11 -21 12 17 20 22 5 49 7 59 4 11 -3 28 0 38 5 14 7 24 7 34 -2 12
-10 17 -9 27 4 7 8 23 17 37 19 29 4 37 29 15 51 -20 20 -19 24 7 38 18 10 24
8 35 -7 7 -10 13 -13 13 -6 0 6 15 15 33 20 27 7 34 5 43 -12 7 -15 7 -23 0
-28 -15 -11 42 -10 62 1 9 4 31 11 49 14 30 6 33 3 53 -38 29 -61 72 -95 118
-95 30 0 45 8 81 45 24 24 47 42 51 40 4 -2 10 25 13 61 4 36 12 81 18 99 10
28 10 41 -4 77 -9 24 -17 57 -17 74 0 16 -5 35 -10 40 -6 6 -13 21 -15 35 -3
13 -9 25 -15 27 -5 2 -10 8 -10 13 0 5 -9 18 -20 29 -11 11 -22 32 -26 47 -9
44 -34 93 -46 93 -6 0 -3 9 7 20 18 20 18 21 -1 34 -30 22 -25 79 9 106 15 12
27 26 27 31 0 5 -12 7 -27 4 l-28 -6 28 16 c29 17 37 28 13 19 -8 -3 -17 -1
-20 4 -3 5 20 12 52 15 60 7 133 30 192 61 59 32 153 135 188 207 54 112 86
271 68 344 -2 11 -5 20 -6 20 -1 0 -3 15 -6 34 -6 47 -46 112 -89 147 -20 16
-57 49 -83 74 -25 24 -56 45 -68 45 -12 1 -34 11 -49 24 -16 12 -40 21 -54 19
-23 -2 -59 1 -206 17 -22 2 -47 0 -55 -5z m335 -170 c3 -5 15 -10 26 -10 10 0
27 -9 36 -20 10 -11 30 -20 45 -20 15 0 30 -4 33 -10 3 -5 16 -10 28 -10 l22
1 -24 19 c-13 11 -17 20 -10 20 28 0 80 -76 104 -150 11 -35 -12 -15 -31 28
-10 20 -18 38 -18 38 -1 1 -12 5 -26 8 l-25 7 25 -16 c24 -16 24 -16 3 -12
-13 3 -26 0 -30 -5 -3 -7 -1 -8 5 -4 7 4 12 1 12 -9 0 -12 5 -15 18 -10 14 5
15 4 5 -6 -17 -17 -16 -29 2 -29 8 0 12 -6 9 -14 -4 -10 3 -16 23 -18 24 -2
28 -8 31 -36 6 -57 -27 -184 -68 -268 -60 -122 -148 -204 -264 -244 -89 -30
-223 -23 -281 17 -11 7 -27 13 -37 13 -10 0 -18 5 -18 10 0 6 -7 10 -15 10
-22 0 -129 110 -156 160 -37 71 -58 129 -48 136 5 3 10 0 10 -5 1 -6 2 -14 3
-18 1 -5 6 -23 10 -40 9 -37 22 -43 31 -13 8 26 22 25 65 -3 19 -13 50 -29 68
-37 18 -7 37 -21 42 -31 15 -27 112 -51 176 -43 30 3 57 10 60 15 3 5 20 9 39
9 19 0 37 5 40 10 3 6 17 10 30 10 13 0 27 5 30 10 7 11 0 13 -64 14 -58 1
-78 28 -41 56 17 13 20 20 10 20 -8 0 -24 8 -35 16 -19 15 -19 15 10 8 17 -3
34 -10 39 -15 11 -9 36 0 36 13 0 6 -7 8 -15 4 -8 -3 -15 -1 -15 4 0 6 8 11
18 12 9 0 22 2 29 2 6 1 15 5 19 9 12 12 44 8 50 -6 3 -9 23 -13 59 -13 57 1
63 4 44 23 -6 6 -12 24 -14 39 -5 42 -38 148 -47 152 -4 2 -8 8 -8 14 0 12
-60 83 -60 71 0 -4 -4 -3 -8 3 -4 5 -38 25 -76 43 -84 40 -106 59 -85 72 8 5
22 6 32 3 9 -3 17 -1 17 5 0 16 115 27 125 11z m134 -19 c-6 -2 -18 4 -27 13
-15 15 -15 15 10 4 15 -7 23 -15 17 -17z m-1316 -13 c44 -25 86 -80 106 -140
12 -34 19 -63 16 -66 -2 -2 -7 7 -11 22 -3 14 -10 26 -15 26 -5 0 -6 7 -3 15
4 10 0 13 -15 10 -12 -2 -21 0 -21 5 0 5 -7 7 -16 3 -8 -3 -25 4 -38 16 -12
12 -26 19 -29 16 -4 -3 -5 -2 -2 2 3 3 0 12 -6 20 -9 10 -7 13 10 13 11 0 21
5 21 10 0 6 -5 10 -11 10 -6 0 -8 7 -5 17 4 9 1 20 -6 25 -21 13 0 9 25 -4z
m562 -147 c-9 -28 -16 -65 -15 -83 3 -59 0 -88 -10 -88 -15 0 -2 146 17 190
24 54 29 42 8 -19z m531 -50 c-3 -5 9 -12 27 -15 25 -5 42 -18 66 -52 18 -26
30 -48 28 -51 -3 -2 -20 6 -39 19 -18 13 -54 32 -78 43 -25 11 -52 28 -62 37
-16 16 -15 17 10 21 48 7 53 7 48 -2z m-1432 -29 c3 -5 -14 -19 -37 -32 -23
-13 -66 -46 -95 -73 -29 -28 -55 -47 -58 -44 -19 18 76 130 126 150 23 9 58 8
64 -1z m276 -122 c0 -4 -9 -10 -20 -13 -17 -4 -20 0 -20 31 l1 37 19 -24 c11
-13 20 -27 20 -31z m1155 36 c22 -16 15 -41 -13 -48 -32 -9 -44 5 -33 35 12
31 19 33 46 13z m-495 -48 c0 -13 -17 -9 -30 7 -6 8 -8 20 -4 26 5 9 11 7 21
-6 7 -11 13 -22 13 -27z m4 -43 c3 -8 1 -15 -3 -15 -5 0 -11 7 -15 15 -3 8 -1
15 3 15 5 0 11 -7 15 -15z m345 -391 c11 -10 -8 -9 -44 3 l-40 13 40 -6 c22
-3 42 -8 44 -10z m-163 -9 c20 -19 5 -19 -20 0 -11 9 -14 15 -7 15 7 0 19 -7
27 -15z m41 9 c-3 -3 -12 -4 -19 -1 -8 3 -5 6 6 6 11 1 17 -2 13 -5z m-317
-284 c0 -5 -4 -10 -10 -10 -5 0 -10 5 -10 10 0 6 5 10 10 10 6 0 10 -4 10 -10z
m80 -80 c0 -5 -2 -10 -4 -10 -3 0 -8 5 -11 10 -3 6 -1 10 4 10 6 0 11 -4 11
-10z m-535 -40 c-3 -5 -13 -10 -21 -10 -8 0 -14 5 -14 10 0 6 9 10 21 10 11 0
17 -4 14 -10z m-235 -209 c0 -5 -9 -11 -21 -14 -16 -4 -18 -3 -8 9 13 16 29
19 29 5z m90 5 c0 -3 -4 -8 -10 -11 -5 -3 -10 -1 -10 4 0 6 5 11 10 11 6 0 10
-2 10 -4z m-140 -36 c0 -5 -5 -10 -11 -10 -5 0 -7 5 -4 10 3 6 8 10 11 10 2 0
4 -4 4 -10z m518 -247 c6 -19 -35 -16 -42 3 -4 11 0 15 16 12 12 -2 23 -9 26
-15z m-80 -10 c-10 -2 -21 -15 -24 -29 -7 -28 -24 -32 -24 -6 0 24 20 42 45
41 16 -1 17 -2 3 -6z"/>
<path d="M3855 3628 c-19 -11 -19 -11 0 -18 24 -9 35 -4 35 16 0 17 -8 17 -35
2z"/>
<path d="M4205 4160 c-3 -5 -1 -10 4 -10 6 0 11 5 11 10 0 6 -2 10 -4 10 -3 0
-8 -4 -11 -10z"/>
<path d="M2090 4115 c-10 -13 -9 -15 9 -15 11 0 21 4 21 9 0 18 -18 21 -30 6z"/>
<path d="M3065 4040 c-3 -5 -2 -10 4 -10 5 0 13 5 16 10 3 6 2 10 -4 10 -5 0
-13 -4 -16 -10z"/>
<path d="M2934 4022 c-13 -8 -46 -74 -40 -79 2 -2 13 9 25 25 11 16 18 32 14
36 -3 3 3 6 15 6 12 0 22 5 22 10 0 12 -20 13 -36 2z"/>
<path d="M4190 3970 c0 -5 7 -10 16 -10 8 0 12 5 9 10 -3 6 -10 10 -16 10 -5
0 -9 -4 -9 -10z"/>
<path d="M4520 3705 c-12 -15 -6 -65 8 -65 4 0 6 -33 4 -72 -1 -42 5 -118 16
-178 18 -102 19 -104 32 -75 18 40 25 235 11 307 -9 51 -34 98 -52 98 -4 0
-12 -7 -19 -15z"/>
<path d="M1684 3637 c-3 -8 2 -29 11 -46 13 -27 14 -40 4 -90 -6 -32 -9 -67
-6 -77 3 -13 5 -9 6 10 0 16 9 53 18 83 12 39 14 62 7 90 -10 39 -30 54 -40
30z"/>
<path d="M2150 3400 c8 -5 20 -10 25 -10 6 0 3 5 -5 10 -8 5 -19 10 -25 10 -5
0 -3 -5 5 -10z"/>
<path d="M4358 3379 c-14 -23 -15 -35 -7 -59 6 -16 15 -30 20 -30 14 0 28 43
19 59 -4 8 -5 22 -3 31 8 30 -12 30 -29 -1z"/>
<path d="M2500 3340 c-9 -6 -10 -10 -3 -10 6 0 15 5 18 10 8 12 4 12 -15 0z"/>
<path d="M2852 3180 c-28 -38 -28 -42 7 -79 30 -32 81 -43 81 -17 0 7 7 19 15
26 13 10 13 15 0 40 -34 66 -69 77 -103 30z"/>
<path d="M4447 3203 c-3 -5 -5 -20 -5 -34 0 -15 -7 -41 -15 -59 l-16 -31 26 3
c34 4 58 65 41 103 -11 25 -23 31 -31 18z"/>
<path d="M2693 3134 c-8 -21 5 -31 53 -39 53 -8 64 7 25 34 -35 25 -69 27 -78
5z"/>
<path d="M2095 2707 c-4 -10 -5 -21 -1 -24 10 -10 18 4 13 24 -4 17 -4 17 -12
0z"/>
<path d="M3248 2523 c6 -2 18 -2 25 0 6 3 1 5 -13 5 -14 0 -19 -2 -12 -5z"/>
<path d="M2123 2463 c-16 -6 -17 -33 -3 -33 11 0 26 28 19 34 -2 2 -10 1 -16
-1z"/>
<path d="M2153 2447 c-7 -15 -13 -39 -13 -52 0 -46 33 -23 45 30 5 21 4 26 -3
16 -8 -11 -11 -9 -14 10 -3 23 -3 23 -15 -4z"/>
<path d="M2117 2354 c-8 -8 1 -24 14 -24 5 0 9 7 9 15 0 15 -12 20 -23 9z"/>
<path d="M2130 2296 c0 -9 7 -16 16 -16 9 0 14 5 12 12 -6 18 -28 21 -28 4z"/>
<path d="M2240 2276 c0 -9 5 -16 10 -16 6 0 10 4 10 9 0 6 -4 13 -10 16 -5 3
-10 -1 -10 -9z"/>
<path d="M2191 2234 c0 -11 3 -14 6 -6 3 7 2 16 -1 19 -3 4 -6 -2 -5 -13z"/>
<path d="M3511 2074 c0 -11 3 -14 6 -6 3 7 2 16 -1 19 -3 4 -6 -2 -5 -13z"/>
<path d="M3286 1921 c-4 -7 -5 -15 -2 -18 9 -9 19 4 14 18 -4 11 -6 11 -12 0z"/>
<path d="M3195 1909 c-4 -6 -5 -12 -2 -15 2 -3 7 2 10 11 7 17 1 20 -8 4z"/>
<path d="M2670 1840 c0 -5 5 -10 11 -10 5 0 7 5 4 10 -3 6 -8 10 -11 10 -2 0
-4 -4 -4 -10z"/>
</g>
</svg>
